<?xml version="1.0" encoding="utf-8"?>
<!-- Generator: Adobe Illustrator 23.0.6, SVG Export Plug-In . SVG Version: 6.00 Build 0)  -->
<svg version="1.1" id="Layer_1" xmlns="http://www.w3.org/2000/svg" xmlns:xlink="http://www.w3.org/1999/xlink" x="0px" y="0px"
	 viewBox="0 0 472 560" style="enable-background:new 0 0 472 560;" xml:space="preserve">
<style type="text/css">
	.st0{fill:#3F784C;}
	.st1{fill:#A22522;}
	.st2{fill:none;stroke:#FFFFFF;stroke-width:3;stroke-miterlimit:10;}
	.st3{fill:none;stroke:#FFFFFF;stroke-miterlimit:10;}
	.st4{fill:none;stroke:#FFFFFF;stroke-width:2;stroke-miterlimit:10;}
	.st5{fill:none;stroke:#FFFFFF;stroke-width:1.5456;stroke-miterlimit:10;}
	.st6{fill:none;stroke:#FFFFFF;stroke-width:3;stroke-linecap:round;stroke-linejoin:round;stroke-miterlimit:10;}
	.st7{fill:none;stroke:#FFFFFF;stroke-linecap:round;stroke-linejoin:round;stroke-miterlimit:10;}
	.st8{fill:none;stroke:#000000;stroke-width:3;stroke-miterlimit:10;}
	.st9{fill:none;stroke:#000000;stroke-width:4;stroke-linecap:round;stroke-linejoin:round;stroke-miterlimit:10;}
	.st10{fill:none;stroke:#000000;stroke-width:4;stroke-miterlimit:10;}
	.st11{fill:#F9F9F9;stroke:#000000;stroke-width:4;stroke-miterlimit:10;}
	.st12{fill:#FFFFFF;stroke:#000000;stroke-width:3;stroke-miterlimit:10;}
	.st13{fill:none;stroke:#000000;stroke-width:2;stroke-miterlimit:10;}
	.st14{fill:#FFFFFF;stroke:#000000;stroke-width:2;stroke-miterlimit:10;}
	.st15{fill:none;stroke:#000000;stroke-width:1.5456;stroke-miterlimit:10;}
	.st16{fill:#FCFCFC;stroke:#000000;stroke-width:4.0858;stroke-linecap:round;stroke-linejoin:round;stroke-miterlimit:10;}
	.st17{fill:#FFFFFF;stroke:#000000;stroke-width:3.0643;stroke-miterlimit:10;}
	.st18{fill:#FCFCFC;stroke:#000000;stroke-width:4;stroke-miterlimit:10;}
	.st19{fill:#FCFCFC;stroke:#000000;stroke-width:3.0643;stroke-miterlimit:10;}
	.st20{fill:#F9F9F9;}
	.st21{fill:#FFFFFF;stroke:#000000;stroke-width:4;stroke-miterlimit:10;}
	.st22{fill:none;stroke:#000000;stroke-linecap:round;stroke-linejoin:round;stroke-miterlimit:10;}
	.st23{fill:none;stroke:#000000;stroke-width:2.0349;stroke-miterlimit:10;}
	.st24{fill:#F08CAE;stroke:#000000;stroke-width:2.7131;stroke-linecap:round;stroke-linejoin:round;stroke-miterlimit:10;}
	.st25{fill:#3F784C;stroke:#000000;stroke-width:2.7131;stroke-miterlimit:10;}
	.st26{opacity:0.5;clip-path:url(#XMLID_7_);}
	.st27{fill:#FFE48C;}
	.st28{opacity:0.75;clip-path:url(#XMLID_7_);fill:#CC4B00;}
	.st29{clip-path:url(#XMLID_7_);fill:#CC4B00;}
	.st30{fill:#FF9840;stroke:#000000;stroke-width:2.0349;stroke-miterlimit:10;}
	.st31{fill:#FF9840;stroke:#000000;stroke-width:2.7131;stroke-miterlimit:10;}
	.st32{fill:#CCBD49;stroke:#000000;stroke-width:2.0349;stroke-miterlimit:10;}
	.st33{stroke:#000000;stroke-width:2.0349;stroke-miterlimit:10;}
	.st34{fill:#FFF07C;stroke:#000000;stroke-width:1.3566;stroke-miterlimit:10;}
	.st35{fill:none;stroke:#000000;stroke-width:1.0484;stroke-miterlimit:10;}
	.st36{fill:none;stroke:#000000;stroke-width:1.3566;stroke-miterlimit:10;}
	.st37{fill:#E6D763;stroke:#000000;stroke-width:2.7713;stroke-linecap:round;stroke-linejoin:round;stroke-miterlimit:10;}
	.st38{fill:none;stroke:#000000;stroke-width:2.7131;stroke-miterlimit:10;}
	.st39{fill:none;stroke:#000000;stroke-width:2.7131;stroke-linecap:round;stroke-linejoin:round;stroke-miterlimit:10;}
	.st40{opacity:0.5;clip-path:url(#XMLID_9_);}
	.st41{opacity:0.75;clip-path:url(#XMLID_9_);fill:#CC4B00;}
	.st42{clip-path:url(#XMLID_9_);fill:#CC4B00;}
</style>
<circle class="st1" cx="236.09" cy="327.38" r="221.12"/>
<path class="st23" d="M190.66,307.91c0.68,0.2,1.35,0.39,2.01,0.58c-3.12-0.75-5.37-1.44-6.76-1.94c-7.61-2.7-13.6-5.81-17.64-8.14
	C173.39,301.28,180.98,305.01,190.66,307.91z"/>
<g>
	<defs>
		<path id="XMLID_2_" d="M317.96,258.4c-0.31,21.24-11.34,35.69-14.92,40.02c-5.12,2.86-12.71,6.59-22.38,9.5
			c-0.68,0.2-1.35,0.39-2.01,0.58c-0.01,0-0.01,0.01-0.02,0.01c-0.01,0.01-0.02,0.01-0.03,0.01c-7.08,1.7-18.61,3.66-34.65,4.1
			c-0.86,0.02-1.73,0.03-2.62,0.05c-1.78,0.03-3.67,0.05-5.66,0.06c-1.99-0.01-3.88-0.03-5.66-0.06c-0.89-0.02-1.76-0.03-2.62-0.05
			c-16.04-0.44-27.57-2.39-34.65-4.1c-0.01,0-0.02,0-0.03-0.01c-0.01,0-0.01-0.01-0.02-0.01c-0.66-0.19-1.34-0.38-2.01-0.58
			c-9.67-2.9-17.26-6.63-22.38-9.5c-3.58-4.33-14.62-18.77-14.92-40.02c-0.15-10.23,2.24-19.01,5.36-26.08
			c-2.19-6.83,7.55-76.33,19.06-79.05c11.61-2.75,45.19,32.54,47.48,38.66c-0.12,0,20.81,0,20.81,0
			c2.2-5.89,33.41-38.81,46.09-38.81c0.5,0,0.96,0.05,1.39,0.15c11.51,2.72,21.25,72.22,19.06,79.05
			C315.72,239.39,318.11,248.17,317.96,258.4z"/>
	</defs>
	<use xlink:href="#XMLID_2_"  style="overflow:visible;fill:#FF9840;"/>
	<clipPath id="XMLID_6_">
		<use xlink:href="#XMLID_2_"  style="overflow:visible;"/>
	</clipPath>
	
		<use xlink:href="#XMLID_2_"  style="overflow:visible;fill:none;stroke:#000000;stroke-width:2.7131;stroke-linecap:round;stroke-linejoin:round;stroke-miterlimit:10;"/>
</g>
<path class="st23" d="M317.71,254.95c-4.03-3.32-6.76-7.39-7-12.15c-0.14-2.67,0.52-5.35,1.79-7.92c1.87,4.02,3.38,8.47,4.31,13.34
	C317.26,250.53,317.55,252.77,317.71,254.95z"/>
<path class="st24" d="M167.18,207.8c0.57-4.37,8.39-37.26,12.17-46.73c3.79,3.14,8.12,7.2,12.46,12.34
	c4.26,5.04,7.49,9.91,9.93,14.11c-3.52,1.23-7.26,2.76-11.16,4.66C180.73,196.98,172.99,202.69,167.18,207.8z"/>
<path class="st25" d="M305.97,323.52c-1.23,0.71-2.75,1.53-4.54,2.4c-2.98,1.46-6.7,3.04-11.06,4.38
	c-11.18,3.44-19.51,3.14-37.98,3.39c-23.19,0.31-18.69,0.89-27.81,0.68c-23.36-0.54-42.56-1.2-53.22-10.04
	c-0.12-0.09-0.22-0.19-0.33-0.28c-1.57-1.34-2.94-2.86-4.1-4.6c-2.78-4.14-3.72-8.47-4.07-11.53c1.81-3.17,3.62-6.33,5.43-9.5
	c4.04,2.33,10.03,5.44,17.64,8.14c1.39,0.5,3.64,1.19,6.76,1.94c0.01,0,0.01,0.01,0.02,0.01c0.01,0.01,0.02,0.01,0.03,0.01
	c12.31,3.44,22.39,3.85,34.65,4.1c1.17,0.02,1.99,0.04,2.62,0.05c12.6,0.19,30.8,0.46,50.42-5.09c5.14-1.45,12.49-3.91,21.03-8.14
	c0.45-0.23,0.9-0.45,1.36-0.68c1.2,1.22,5.23,5.59,5.87,12.55C309.24,317.4,306.88,321.94,305.97,323.52z"/>
<g>
	<defs>
		<path id="XMLID_1_" d="M316.82,371.67c-1.44,24.64-2.58,43.97-15.6,59.69c-20.88,25.21-58.18,24.06-68.51,23.74
			c-5.04-0.16-10.14-0.71-15.11-1.51c-21.03-3.38-39.75-11.16-41.86-12.06c-3.09-1.31-12.68-5.55-25.77-6.1
			c-4.87-0.2-8.97,0.15-11.86,0.53c-0.37,0.05-0.71,0.1-1.03,0.15c-2.81-3.64-7.6-10.91-8.82-21.03
			c-0.32-2.63-1.02-10.72,4.07-23.74c5.65-14.44,12.43-19.61,21.03-31.88c5.21-7.45,12.11-18.96,17.64-35.27
			c0.07,0.05,0.19,0.09,0.37,0.14c10.66,8.84,29.86,9.5,53.22,10.04c9.12,0.21,4.62-0.37,27.81-0.68
			c18.47-0.25,26.81,0.05,37.98-3.39c4.36-1.34,8.09-2.92,11.06-4.38c1.79-0.87,3.31-1.7,4.54-2.4c2.57,4.35,5.82,10.77,8.14,18.99
			c1.72,6.09,2.67,12.22,2.88,19.05C317.08,364.75,317.03,368.1,316.82,371.67z"/>
	</defs>
	<use xlink:href="#XMLID_1_"  style="overflow:visible;fill:#FF9840;"/>
	<clipPath id="XMLID_7_">
		<use xlink:href="#XMLID_1_"  style="overflow:visible;"/>
	</clipPath>
	<g class="st26">
		<polygon class="st27" points="275.16,451.94 258.32,445.27 242.31,452.05 226.3,445.27 210.29,452.05 195.1,445.37 187.25,433.02 
			192.05,415.72 185.2,399.12 193.79,383.35 191.03,365.61 199.67,361.08 195.88,352.1 204.93,348.48 202.06,339.16 209.81,337.84 
			218.97,331.32 229.41,338.1 239.86,331.32 250.31,338.1 262.22,331.65 261.06,343.15 270.37,347.7 266.73,357.4 275.57,362.81 
			271.02,372.12 280.58,386.19 275.26,402.35 282.01,417.96 273.8,432.86 		"/>
	</g>
	<path class="st28" d="M334.68,347.93c0.08,2.22-9.41,5.13-18.31,5.09c-2-0.01-3.96-0.17-10.85-1.36
		c-4.7-0.81-11.19-2.01-18.99-3.73c3.64-2.24,9.73-5.26,17.64-5.77c3.08-0.2,5.49,0.09,10.17,0.68
		C321.83,343.78,334.59,345.38,334.68,347.93z"/>
	<path class="st28" d="M333.33,369.64c0.08,2.22-9.41,5.13-18.31,5.09c-2-0.01-3.96-0.17-10.85-1.36
		c-4.7-0.81-11.19-2.01-18.99-3.73c3.64-2.24,9.73-5.26,17.64-5.77c3.08-0.2,5.49,0.09,10.17,0.68
		C320.47,365.49,333.24,367.09,333.33,369.64z"/>
	<path class="st28" d="M331.29,394.74c0.08,2.22-9.41,5.13-18.31,5.09c-2-0.01-3.96-0.17-10.85-1.36
		c-4.7-0.81-11.19-2.01-18.99-3.73c3.64-2.24,9.73-5.26,17.64-5.77c3.08-0.2,5.49,0.09,10.17,0.68
		C318.43,390.59,331.2,392.18,331.29,394.74z"/>
	<path class="st28" d="M163.08,394.06c-8.26,1.25-20.44,2.72-35.27,3.05c-13.18,0.3-37.4,0.84-37.98-3.05
		c-0.59-3.88,22.05-14.66,45.45-11.19C147.66,384.7,157.12,389.95,163.08,394.06z"/>
	<path class="st28" d="M185.46,344.54c-8.26,1.25-20.44,2.72-35.27,3.05c-13.18,0.3-37.4,0.84-37.98-3.05
		c-0.59-3.88,22.05-14.66,45.45-11.19C170.04,335.19,179.5,340.44,185.46,344.54z"/>
	<path class="st29" d="M172.57,366.25c-8.26,1.25-20.44,2.72-35.27,3.05c-13.18,0.3-37.4,0.84-37.98-3.05
		c-0.59-3.88,22.05-14.66,45.45-11.19C157.15,356.89,166.62,362.14,172.57,366.25z"/>
	<use xlink:href="#XMLID_1_"  style="overflow:visible;fill:none;stroke:#000000;stroke-width:2.7131;stroke-miterlimit:10;"/>
</g>
<path class="st30" d="M218.47,459.85c-0.2,2.75-1.8,12.96-24.42,23.06c-9.31,1.12-17.18,1.7-23.06,2.03
	c-14.42,0.81-19.15,0.2-23.06-0.68c-6.29-1.42-11.15-3.72-14.24-5.43c-2.83-3.39-7.03-9.56-7.46-17.64
	c-0.52-9.83,4.74-18.68,11.88-25.25c2.89-0.38,6.99-0.73,11.86-0.53c13.1,0.56,22.69,4.8,25.77,6.1c2.11,0.9,20.83,8.68,41.86,12.06
	C218.3,455.72,218.62,457.82,218.47,459.85z"/>
<path class="st31" d="M333.1,377.1c14.61,11.51,10.26,35.74,9.5,40.02c-1.75,9.73-5.76,17.1-8.82,21.71
	c1.19,1.04,9.9,8.92,9.5,21.71c-0.02,0.58-0.63,13.55-10.85,21.03c-2.57,1.88-7.69,4.83-29.84,3.39
	c-22.79-1.48-34.19-2.22-37.31-8.82c-2.86-6.06,3.84-9.98,10.17-29.17c4.53-13.73,2.3-15.34,8.14-36.63
	c4.96-18.06,8.12-22.57,10.17-25.1c2.88-3.55,10.77-13.28,23.06-13.57C325.75,371.46,332.15,376.35,333.1,377.1z"/>
<path class="st31" d="M367.01,285.53c-0.17,13.36-0.39,30.6-8.82,46.12c-8.42,15.5-27.71,34.27-41.21,29.9
	c-0.21-6.83-1.15-12.96-2.88-19.05c-2.32-8.22-5.57-14.64-8.14-18.99c0.43-0.72,1.28-2.23,1.93-4.33c0.18-0.58,1.16-3.87,0.78-7.88
	c-0.62-6.56-4.5-11.08-5.87-12.55c3.29-4.03,7.67-10.36,10.85-18.99c3.75-10.16,4.21-19.12,4.06-24.7c0.05,0.01,0.12,0.03,0.17,0.04
	c7.89,6.4,20.59,10.05,29.45,10.76c4.07,0.33,11.25,0.9,17.83-2.1c0.16,0.02,0.33,0.04,0.49,0.06
	C366.37,268.95,367.13,276.46,367.01,285.53z"/>
<path class="st32" d="M259.84,339.12c2.18,14.42-11.13,29.08-26.45,28.49c-13.59-0.53-25.92-12.93-24.42-27.13
	c1.42-13.4,14.53-22.42,27.13-21.71C247.4,319.41,258.14,327.85,259.84,339.12z"/>
<path class="st33" d="M234.29,362.19c-0.23,0-0.46,0-0.69-0.01c-5.39-0.21-10.85-2.93-14.61-7.28c-3.5-4.04-5.14-8.97-4.62-13.86
	c1.11-10.43,11.42-16.89,20.34-16.89c0.36,0,0.73,0.01,1.09,0.03c9.22,0.52,17.43,7.44,18.68,15.74c0.76,5.01-0.98,10.4-4.77,14.81
	C245.69,359.41,239.92,362.19,234.29,362.19z"/>
<path class="st34" d="M249.7,354.74c-3.43,3.99-8.13,6.6-12.93,7.28c-0.12-1.87-0.22-3.74-0.33-5.6c0.16-0.16,1.11-1.09,1.02-2.37
	c-0.12-1.56-1.72-2.89-3.39-2.71c-1.37,0.14-2.62,1.29-2.71,2.71c-0.09,1.32,0.87,2.24,1.02,2.37c-0.12,1.88-0.22,3.76-0.33,5.64
	c-4.87-0.62-9.66-3.22-13.05-7.15c-3.5-4.04-5.14-8.97-4.62-13.86c1.11-10.43,11.42-16.89,20.33-16.89c0.36,0,0.73,0.01,1.09,0.03
	c9.22,0.52,17.43,7.43,18.68,15.74C255.24,344.94,253.49,350.33,249.7,354.74z"/>
<path class="st34" d="M260.18,343.52c-6.27,1.74-15.12,3.49-25.77,3.39c-11.03-0.1-20.11-2.13-26.45-4.07
	c-1.45-1.29-1.98-3.21-1.36-4.75c0.52-1.29,1.68-1.87,2.03-2.03c6.46,1.67,15,3.23,25.1,3.39c10.37,0.17,19.16-1.19,25.77-2.71
	c1.55,0.01,2.91,0.84,3.39,2.03C263.56,340.44,262.5,342.79,260.18,343.52z"/>
<path class="st37" d="M284.83,455.16c0.29,4.35,0.16,11.12-2.71,18.4c-5.99,15.2-19.52,21.53-26.45,24.77
	c-4.54,2.12-28.55,13.35-49.41,0.71c-5.99-3.63-9.96-8.17-12.32-11.32c-3.42-9.07-6.81-18.27-10.17-27.6
	c-4.48-12.41-8.77-24.68-12.89-36.8c0.28-2.34,4.51-33.25,30.52-46c20.48-10.04,46.95-5.14,57.76,9.2
	c0.51,0.67,3.01,6.82,8.03,19.11c8.21,20.11,11,28.25,12.21,31.85C281.88,444.86,283.68,451.02,284.83,455.16z"/>
<path d="M218.15,402.53c0.02,0.54,0.07,1.87,0.89,2.4c2.84,1.85,9.78-9.33,18.93-9.57c1.02-0.03,3.75-0.1,4.91,1.68
	c0.65,0.99,0.7,2.42,0.3,3.52c-0.99,2.72-4.53,2.82-11.8,5.36c-5.66,1.97-8.5,3-9.1,5.11c-0.92,3.26,3.75,5.66,2.81,8.98
	c-0.85,3.01-5.87,5.15-8.54,3.63c-2.99-1.7-1.54-7.09-4.1-8.15c-1.93-0.8-3.69,1.91-9.1,5.11c-3.16,1.86-9.54,5.64-12.66,3.3
	c-1.23-0.92-2.22-2.99-1.77-4.81c1.64-6.57,21.12-5.02,21.64-9.82c0.11-0.99-0.64-1.82-0.86-2.05c-3.11-3.43-11.91,3-14.31-0.1
	c-1.1-1.42-0.86-4.04,0.2-5.7c2.51-3.95,8.22-0.3,14.62-4.2c4.74-2.88,5.01-6.97,8.92-7.22c2.37-0.15,5.21,1.12,5.7,3.02
	C225.57,395.88,217.98,397.99,218.15,402.53z"/>
<path class="st31" d="M199.47,406.27c-2.08,1.61-9.9,7.72-20.35,6.78c-1.81-0.16-8.12-0.93-18.31-9.5
	c-5.45-4.57-19.26-16.52-25.1-37.98c-2.69-9.9-5.71-20.98-0.68-33.24c7.06-17.19,24.45-23.31,27.81-24.42
	c0.35,3.07,1.29,7.39,4.07,11.53c1.17,1.74,2.54,3.26,4.1,4.6c-0.01,0.05-0.02,0.11-0.03,0.15c-0.75,3.06-1.35,7.45,0,12.21
	c2.21,7.79,8.19,11.44,16.96,18.31c15.26,11.97,22.89,17.95,24.42,25.1C214.6,390.27,206.17,401.04,199.47,406.27z"/>
<g>
	<path d="M175.07,484.56c-0.81-2.05-1.32-4.2-1.79-6.34c-0.44-2.15-0.76-4.31-0.94-6.49c-0.18-2.17-0.26-4.35-0.19-6.51
		c0.07-2.17,0.27-4.32,0.58-6.46c0.05-0.35,0.37-0.59,0.71-0.54c0.34,0.05,0.57,0.35,0.54,0.69c-0.2,2.1-0.25,4.2-0.15,6.3
		c0.1,2.1,0.3,4.18,0.68,6.24c0.37,2.05,0.88,4.08,1.51,6.06c0.61,1.99,1.43,3.89,2.19,5.8c0.35,0.87-0.07,1.86-0.94,2.21
		C176.41,485.86,175.42,485.43,175.07,484.56L175.07,484.56z"/>
</g>
<g>
	<path d="M160.82,485.21c-0.8-2.11-1.29-4.32-1.75-6.51c-0.44-2.2-0.75-4.42-0.93-6.65c-0.18-2.22-0.26-4.45-0.2-6.67
		c0.07-2.22,0.26-4.43,0.55-6.62c0.05-0.35,0.36-0.59,0.71-0.54c0.34,0.04,0.57,0.35,0.55,0.68c-0.19,2.15-0.23,4.32-0.12,6.47
		c0.1,2.15,0.31,4.29,0.69,6.41c0.38,2.11,0.87,4.2,1.5,6.23c0.6,2.05,1.42,4.01,2.17,5.99c0.33,0.87-0.1,1.86-0.98,2.19
		C162.13,486.53,161.15,486.09,160.82,485.21L160.82,485.21z"/>
</g>
<g>
	<path d="M145.18,483.76c-0.64-2.08-1.01-4.23-1.36-6.37c-0.33-2.14-0.56-4.29-0.67-6.45c-0.12-2.15-0.17-4.3-0.09-6.45
		c0.08-2.14,0.25-4.28,0.51-6.4c0.04-0.35,0.36-0.59,0.7-0.55c0.34,0.04,0.58,0.34,0.56,0.67c-0.15,2.09-0.17,4.19-0.08,6.28
		c0.09,2.09,0.27,4.17,0.59,6.23c0.32,2.06,0.74,4.1,1.27,6.1c0.5,2.01,1.2,3.96,1.82,5.93c0.28,0.89-0.22,1.85-1.11,2.13
		C146.42,485.15,145.46,484.66,145.18,483.76L145.18,483.76z"/>
</g>
<g>
	<path d="M208.9,393.81c-1.93-1.07-3.69-2.41-5.41-3.76c-1.71-1.38-3.33-2.85-4.84-4.41c-1.52-1.56-2.96-3.19-4.28-4.91
		c-1.32-1.72-2.53-3.51-3.66-5.35c-0.18-0.3-0.09-0.69,0.21-0.87c0.29-0.18,0.67-0.09,0.85,0.19c1.18,1.74,2.48,3.4,3.89,4.96
		c1.41,1.56,2.89,3.04,4.49,4.38c1.59,1.35,3.27,2.59,5.01,3.72c1.73,1.15,3.58,2.09,5.38,3.09c0.82,0.45,1.12,1.48,0.67,2.3
		C210.76,393.97,209.72,394.27,208.9,393.81L208.9,393.81z"/>
</g>
<g>
	<path d="M200.94,405.38c-2.12-1.15-4.07-2.58-5.98-4.04c-1.89-1.48-3.69-3.07-5.37-4.76c-1.69-1.69-3.3-3.45-4.77-5.32
		c-1.47-1.87-2.83-3.81-4.09-5.82c-0.19-0.3-0.1-0.69,0.2-0.87c0.29-0.18,0.67-0.1,0.86,0.18c1.31,1.91,2.76,3.72,4.32,5.42
		c1.56,1.7,3.2,3.32,4.97,4.79c1.76,1.48,3.61,2.83,5.53,4.07c1.91,1.25,3.95,2.29,5.94,3.37c0.83,0.44,1.13,1.47,0.69,2.3
		C202.79,405.52,201.77,405.83,200.94,405.38L200.94,405.38z"/>
</g>
<g>
	<path d="M187.31,413.49c-1.94-1.15-3.71-2.57-5.45-3.99c-1.73-1.44-3.36-2.97-4.91-4.59c-1.54-1.62-3.02-3.29-4.38-5.05
		c-1.36-1.76-2.62-3.59-3.8-5.46c-0.19-0.3-0.1-0.69,0.2-0.87c0.29-0.18,0.66-0.1,0.86,0.18c1.24,1.78,2.59,3.48,4.04,5.08
		c1.45,1.6,2.97,3.13,4.6,4.54c1.63,1.4,3.33,2.72,5.11,3.92c1.76,1.22,3.63,2.25,5.46,3.33c0.81,0.48,1.08,1.51,0.6,2.32
		C189.16,413.7,188.12,413.97,187.31,413.49L187.31,413.49z"/>
</g>
<g>
	<path d="M292.57,482.96c0.76-1.91,1.59-3.81,2.19-5.8c0.63-1.98,1.13-4,1.51-6.06c0.38-2.05,0.58-4.14,0.68-6.24
		c0.1-2.1,0.05-4.2-0.15-6.3c-0.03-0.35,0.22-0.66,0.57-0.69c0.34-0.03,0.64,0.21,0.69,0.54c0.3,2.14,0.5,4.29,0.58,6.46
		c0.08,2.17-0.01,4.34-0.19,6.51c-0.17,2.17-0.49,4.34-0.94,6.49c-0.47,2.14-0.98,4.29-1.79,6.34c-0.34,0.87-1.33,1.3-2.2,0.95
		S292.22,483.84,292.57,482.96L292.57,482.96z"/>
</g>
<g>
	<path d="M306.8,483.67c0.75-1.98,1.57-3.95,2.17-5.99c0.63-2.04,1.12-4.12,1.5-6.23c0.38-2.11,0.58-4.26,0.69-6.41
		c0.11-2.15,0.07-4.31-0.12-6.47c-0.03-0.35,0.23-0.65,0.57-0.69c0.34-0.03,0.64,0.21,0.68,0.55c0.29,2.19,0.48,4.4,0.55,6.62
		c0.07,2.22-0.02,4.45-0.2,6.67c-0.18,2.22-0.49,4.45-0.93,6.65c-0.46,2.19-0.96,4.4-1.75,6.51c-0.33,0.88-1.31,1.32-2.19,0.99
		C306.91,485.53,306.47,484.55,306.8,483.67L306.8,483.67z"/>
</g>
<g>
	<path d="M321.9,483.02c0.71-1.99,1.5-3.97,2.07-6.03c0.6-2.05,1.07-4.13,1.43-6.25c0.36-2.11,0.56-4.25,0.66-6.4
		c0.1-2.15,0.07-4.31-0.1-6.46c-0.03-0.35,0.23-0.65,0.58-0.68c0.34-0.03,0.64,0.22,0.68,0.55c0.28,2.19,0.46,4.39,0.53,6.61
		c0.07,2.21-0.01,4.43-0.17,6.65c-0.16,2.22-0.45,4.44-0.85,6.64c-0.43,2.19-0.89,4.4-1.64,6.52c-0.31,0.88-1.28,1.34-2.17,1.03
		C322.04,484.88,321.58,483.91,321.9,483.02L321.9,483.02z"/>
</g>
<path d="M212.98,456.11c-5.39,1.77-11.37,0.98-11.61-0.35c-0.27-1.52,7.94-2.53,15.5-9.96c3.88-3.82,6.87-8.74,5.98-9.79
	c-1.78-2.1-17.16,13.48-25.13,8.72c-1.76-1.05-3.6-3.36-3.12-4.68c0.61-1.67,4.78-1.35,6.7-1.33c5.9,0.06,8.93-2.57,24.16-12.18
	c19.01-12,22.71-13.26,25.57-11.6c2.64,1.53,4.19,5.32,3.3,6.8c-0.88,1.48-3.77-0.08-9.46,0.88c-1.82,0.31-4.79,1.09-7.93,2.87
	c-2.72,1.54-6.13,4.3-5.66,5.5c0.59,1.48,7.46,1.35,12.9-0.48c1.08-0.36,2.79-1.02,4.73-0.44c0.25,0.08,2.85,0.9,3.68,3.21
	c1.21,3.36-2.34,7.04-3.39,8.13c-0.99,1.03-2.87,2.93-5.84,3.38c-3.41,0.53-7.01-1.04-7-2.19c0.02-1.5,6.13-1.49,7.07-4.92
	c0.07-0.24,0.38-1.39-0.18-2.11c-1.12-1.45-4.15,1.16-9.46,0.88c-3.54-0.19-4.75-1.1-6.14-0.14c-1.99,1.37-0.99,4.25-2.04,8
	C223.28,452.58,213.58,455.92,212.98,456.11z"/>
<path d="M267.81,461.69c-0.92-2.07-1.36-2.89-1.55-3.25c-1.15-2.12-2.23-4.1-3.22-4.84c-4.54-3.37-17.67,11.5-21.76,8.41
	c-0.98-0.74-1.28-2.39-0.98-3.46c0.6-2.1,3.7-2.7,6.52-3.45c6.29-1.67,16.28-5.43,16.29-8.61c0.01-1.43-2-2.49-2.27-2.63
	c-4.65-2.46-9.88,2.75-22.37,9.18c-9.17,4.72-13.76,7.08-19.05,8.16c-5.66,1.15-11.15,1.19-11.92,3.95
	c-0.38,1.37,0.48,3.17,1.71,4.1c2.21,1.69,5.15,0.28,16.71-3.68c3.08-1.05,5.53-3.06,6.64-2.04c0.64,0.59,0.61,1.89,0.24,2.82
	c-0.88,2.2-3.75,2.39-7.87,3.57c-5.07,1.45-10.34,2.95-11.07,6c-0.49,2.03,1.55,2.63,2.69,7.57c0.78,3.37-0.11,5,1.22,6.28
	c1.24,1.19,3.2,1.07,4.85,0.97c2-0.11,3.38-0.2,3.99-1.08c1.85-2.66-5.75-8.95-3.84-13.14c0.74-1.62,2.59-2.26,5.84-3.38
	c2.74-0.94,4.56-1.57,6.08-0.56c2.22,1.49,2.68,5.74,1.28,6.99c-1.61,1.42-4.94-1.72-6.82-0.08c-1.12,0.98-1.04,3.06-0.99,4.35
	c0.05,1.38,0.11,2.78,0.98,3.46c1,0.78,2.69,0.11,6.02-1.27c3.93-1.63,5.9-2.44,6.58-2.74c8.95-4,13.32-4.55,15-7.78
	c0.18-0.34,0.49-1.03,1.23-1.53c1.6-1.09,3.29,0.19,5.46,0.2c2.99,0.03,6.5-2.29,7.07-4.92
	C270.72,468.25,269.75,466.06,267.81,461.69z M263.62,468.47c-0.65,1.62-4.13,2.22-6.7,1.33c-2.46-0.86-3.4-2.87-4.29-2.44
	c-1.18,0.55,0.36,4.02-1.49,6.53c-1.06,1.43-3.03,2.3-4.61,1.85c-2.8-0.8-4.12-5.66-2.75-8.27c0.69-1.32,1.61-1.2,6.52-3.45
	c4.79-2.2,5.08-2.84,6.58-2.74C260.76,461.55,264.48,466.33,263.62,468.47z"/>
<g>
	<path d="M332.8,439.82c-1.13-0.88-2.31-1.7-3.57-2.4c-1.24-0.72-2.54-1.33-3.89-1.82c-2.67-1.03-5.52-1.54-8.4-1.56
		c-2.88-0.08-5.75,0.5-8.52,1.46c-2.76,0.98-5.38,2.44-7.75,4.28l-0.01,0c-0.17,0.13-0.4,0.1-0.53-0.07
		c-0.11-0.15-0.1-0.35,0.02-0.49c2.1-2.29,4.67-4.16,7.52-5.5c1.42-0.67,2.92-1.25,4.47-1.6c1.54-0.38,3.13-0.63,4.73-0.71
		c3.2-0.17,6.44,0.34,9.47,1.43c3.01,1.12,5.82,2.77,8.17,4.98c0.53,0.5,0.56,1.34,0.06,1.87c-0.47,0.5-1.24,0.55-1.77,0.14
		L332.8,439.82z"/>
</g>
<path class="st31" d="M377.86,244.83c-0.03,8.25-6.04,14.2-6.78,14.92c-1.83,1.77-3.85,3.07-5.91,4.01c-6.58,3-13.76,2.42-17.83,2.1
	c-8.87-0.71-21.56-4.35-29.45-10.76c-0.06-0.05-0.12-0.1-0.18-0.15c-4.03-3.32-6.76-7.39-7-12.15c-0.14-2.67,0.52-5.35,1.79-7.92
	c4.82-9.73,18.47-17.86,31.45-17.86C360.89,217.02,377.92,230.9,377.86,244.83z"/>
<g>
	<path d="M328.71,260.46c0.74-1.79,1.55-3.58,2.14-5.45c0.61-1.86,1.09-3.77,1.46-5.71c0.36-1.94,0.55-3.91,0.63-5.89
		c0.08-1.98,0.02-3.97-0.19-5.95c-0.04-0.35,0.21-0.66,0.56-0.7c0.34-0.04,0.64,0.2,0.69,0.53c0.32,2.02,0.53,4.06,0.62,6.12
		c0.09,2.06,0.02,4.12-0.14,6.18c-0.16,2.06-0.46,4.12-0.89,6.16c-0.45,2.03-0.95,4.08-1.74,6.01c-0.36,0.87-1.35,1.28-2.21,0.92
		C328.76,262.33,328.35,261.34,328.71,260.46L328.71,260.46z"/>
</g>
<g>
	<path d="M343.55,264.09c0.55-2.16,1.2-4.31,1.67-6.51c0.48-2.19,0.88-4.41,1.19-6.64c0.31-2.23,0.48-4.48,0.58-6.74
		c0.11-2.26,0.11-4.52,0-6.78c-0.02-0.35,0.25-0.65,0.6-0.66c0.34-0.02,0.63,0.24,0.66,0.57c0.21,2.29,0.36,4.58,0.43,6.89
		c0.07,2.3,0.02,4.61-0.08,6.92c-0.09,2.31-0.3,4.62-0.58,6.92c-0.3,2.3-0.6,4.61-1.18,6.87c-0.23,0.91-1.15,1.46-2.06,1.23
		C343.87,265.92,343.32,265,343.55,264.09L343.55,264.09z"/>
</g>
<g>
	<path d="M359.14,264.13c0.5-2.23,1.1-4.45,1.51-6.71c0.43-2.26,0.77-4.53,1.02-6.83c0.25-2.29,0.36-4.6,0.41-6.91
		c0.05-2.31-0.01-4.63-0.18-6.94c-0.03-0.35,0.23-0.65,0.58-0.68c0.34-0.03,0.63,0.22,0.68,0.56c0.27,2.33,0.48,4.68,0.61,7.03
		c0.13,2.35,0.13,4.71,0.09,7.07c-0.04,2.36-0.18,4.73-0.4,7.09c-0.25,2.36-0.49,4.73-1.01,7.05c-0.2,0.91-1.11,1.49-2.02,1.29
		S358.94,265.05,359.14,264.13L359.14,264.13z"/>
</g>
<path class="st24" d="M304.12,207.8c-0.57-4.37-8.39-37.26-12.17-46.73c-3.79,3.14-8.12,7.2-12.46,12.34
	c-4.26,5.04-7.49,9.91-9.93,14.11c3.52,1.23,7.26,2.76,11.16,4.66C290.58,196.98,298.32,202.69,304.12,207.8z"/>
<g>
	<path d="M181.52,177.42c3-2.72,7.25-4.16,11.47-3.77l0.02,0c0.56,0.05,0.97,0.55,0.92,1.11c-0.05,0.56-0.55,0.97-1.11,0.92
		c-0.04,0-0.08-0.01-0.12-0.02c-3.6-0.76-7.61,0.04-10.76,2.28c-0.15,0.11-0.36,0.07-0.47-0.08
		C181.37,177.73,181.4,177.53,181.52,177.42z"/>
</g>
<g>
	<path d="M180.74,184.79c2.01-1.9,4.39-3.46,6.99-4.5c2.6-1.06,5.43-1.59,8.27-1.59c0.56,0,1.02,0.45,1.02,1.02
		s-0.45,1.02-1.02,1.02c-0.02,0-0.05,0-0.07,0c-2.58-0.18-5.21,0.13-7.69,0.95c-2.49,0.81-4.83,2.12-6.88,3.81
		c-0.2,0.17-0.5,0.14-0.66-0.06C180.54,185.24,180.56,184.96,180.74,184.79z"/>
</g>
<g>
	<path d="M179.45,191.63c2.72-2.37,5.83-4.33,9.21-5.73c3.37-1.4,7-2.24,10.68-2.45c0.56-0.03,1.04,0.39,1.08,0.95
		c0.03,0.56-0.39,1.04-0.95,1.08c-0.02,0-0.05,0-0.06,0c-3.46-0.01-6.94,0.58-10.24,1.72c-3.3,1.14-6.42,2.86-9.22,5.02
		c-0.17,0.13-0.41,0.1-0.54-0.07C179.28,191.99,179.3,191.76,179.45,191.63z"/>
</g>
<g>
	<path d="M290.05,177.27c-3.16-2.25-7.16-3.05-10.76-2.28c-0.55,0.12-1.09-0.24-1.21-0.79s0.24-1.09,0.79-1.21
		c0.04-0.01,0.08-0.01,0.12-0.02l0.02,0c4.22-0.39,8.47,1.06,11.47,3.77c0.14,0.12,0.15,0.34,0.03,0.48
		C290.38,177.35,290.18,177.37,290.05,177.27z"/>
</g>
<g>
	<path d="M290.62,184.82c-2.05-1.69-4.39-3-6.88-3.81c-2.49-0.82-5.12-1.13-7.69-0.95c-0.56,0.04-1.05-0.38-1.09-0.95
		s0.38-1.05,0.95-1.09c0.02,0,0.05,0,0.07,0c2.84-0.01,5.67,0.53,8.27,1.59c2.61,1.05,4.98,2.6,6.99,4.5
		c0.19,0.18,0.2,0.48,0.02,0.66C291.09,184.96,290.81,184.97,290.62,184.82z"/>
</g>
<g>
	<path d="M292.05,191.55c-2.8-2.16-5.92-3.87-9.22-5.02c-3.3-1.15-6.78-1.73-10.24-1.72c-0.56,0-1.02-0.45-1.02-1.02
		c0-0.56,0.45-1.02,1.02-1.02c0.02,0,0.05,0,0.06,0c3.68,0.21,7.3,1.05,10.68,2.45c3.37,1.4,6.49,3.36,9.21,5.73
		c0.16,0.14,0.18,0.38,0.04,0.54C292.44,191.65,292.21,191.67,292.05,191.55z"/>
</g>
<g>
	<path d="M290.73,238.17l-6.62,2.57c-0.37,0.14-0.77,0.03-1.01-0.25l-0.13-0.15l0,0c-2.24-2.54-5.09-4.71-8.14-6.07
		c-3.06-1.4-6.41-1.91-9.71-1.54c-3.3,0.38-6.48,1.68-9.18,3.67c-2.7,2-4.92,4.69-6.43,7.81l0,0.01c-0.25,0.51-0.87,0.73-1.38,0.48
		c-0.47-0.23-0.69-0.77-0.53-1.25c1.19-3.63,3.44-6.97,6.46-9.45c3-2.5,6.76-4.14,10.68-4.62c1.96-0.27,3.96-0.14,5.91,0.16
		c1.95,0.34,3.83,1.03,5.57,1.91c3.5,1.79,6.36,4.45,8.47,7.72l0,0l-1.15-0.4l6.94-1.5c0.26-0.06,0.51,0.11,0.57,0.37
		C291.08,237.85,290.95,238.08,290.73,238.17z"/>
</g>
<g>
	<path d="M178.82,237.26l6.94,1.5l-1.15,0.4l0,0c2.11-3.27,4.97-5.93,8.47-7.72c1.74-0.88,3.61-1.56,5.57-1.91
		c1.95-0.3,3.95-0.43,5.91-0.16c3.92,0.48,7.68,2.11,10.68,4.62c3.02,2.48,5.27,5.82,6.46,9.45c0.18,0.54-0.12,1.13-0.66,1.31
		c-0.5,0.16-1.03-0.07-1.25-0.53l0-0.01c-1.51-3.12-3.73-5.8-6.43-7.81c-2.7-1.99-5.88-3.29-9.18-3.67
		c-3.3-0.37-6.65,0.14-9.71,1.54c-3.04,1.36-5.9,3.54-8.14,6.07l0,0l-0.13,0.15c-0.26,0.3-0.67,0.38-1.02,0.25l-6.62-2.57
		c-0.25-0.1-0.37-0.37-0.27-0.62C178.36,237.33,178.59,237.21,178.82,237.26z"/>
</g>
<path class="st24" d="M234.64,269.93c-2.75-1.79-9.78-6.59-8.82-9.5c1.27-3.85,16.37-3.85,17.64,0
	C244.41,263.34,237.39,268.15,234.64,269.93z"/>
<path class="st39" d="M234.64,269.93v6.78c-0.6,0.69-5.01,5.58-12.21,5.43c-6.8-0.15-10.89-4.69-11.53-5.43"/>
<path class="st39" d="M234.64,276.71c0.61,0.73,4.41,5.14,10.85,5.43c7.24,0.33,11.7-4.82,12.21-5.43"/>
<circle cx="214.97" cy="259.76" r="2.03"/>
<circle cx="211.24" cy="266.2" r="2.03"/>
<circle cx="218.7" cy="266.2" r="2.03"/>
<circle cx="254.31" cy="259.76" r="2.03"/>
<circle cx="250.58" cy="266.2" r="2.03"/>
<circle cx="258.04" cy="266.2" r="2.03"/>
<g>
	<path d="M206.07,257.9c-9.83-3.73-20.24-6.06-30.81-6.89c-0.22-0.02-0.39-0.21-0.37-0.44c0.02-0.22,0.2-0.38,0.41-0.37
		c10.67,0.26,21.35,2.05,31.6,5.32c0.66,0.21,1.03,0.92,0.82,1.59s-0.92,1.03-1.59,0.82C206.12,257.91,206.09,257.9,206.07,257.9z"
		/>
</g>
<g>
	<path d="M206.38,264.68c-12.53-1.4-25.23-1.45-37.83-0.15c-0.2,0.02-0.38-0.13-0.4-0.33c-0.02-0.2,0.12-0.37,0.31-0.4
		c12.58-1.86,25.39-2.37,38.14-1.5c0.66,0.04,1.16,0.61,1.11,1.27c-0.04,0.66-0.61,1.16-1.27,1.11
		C206.42,264.68,206.4,264.68,206.38,264.68z"/>
</g>
<g>
	<path d="M206.56,271.72c-10.54,0.15-21.1,2.07-31.13,5.69c-0.2,0.07-0.43-0.03-0.5-0.24c-0.07-0.2,0.02-0.41,0.21-0.49
		c9.84-4.31,20.45-7,31.28-7.87c0.8-0.07,1.5,0.53,1.57,1.33c0.07,0.8-0.53,1.5-1.33,1.57
		C206.63,271.72,206.59,271.72,206.56,271.72z"/>
</g>
<g>
	<path d="M263.73,255.51c10.25-3.27,20.92-5.05,31.6-5.32c0.22-0.01,0.41,0.17,0.42,0.4c0.01,0.22-0.16,0.4-0.37,0.41
		c-10.57,0.83-20.97,3.16-30.81,6.89c-0.65,0.25-1.38-0.08-1.63-0.73c-0.25-0.65,0.08-1.38,0.73-1.63
		C263.68,255.53,263.71,255.52,263.73,255.51z"/>
</g>
<g>
	<path d="M264.04,262.3c12.75-0.86,25.56-0.35,38.14,1.5c0.2,0.03,0.34,0.22,0.31,0.42c-0.03,0.19-0.21,0.33-0.4,0.31
		c-12.6-1.3-25.3-1.25-37.83,0.15c-0.66,0.07-1.25-0.4-1.32-1.05c-0.07-0.66,0.4-1.25,1.05-1.32
		C264,262.3,264.02,262.3,264.04,262.3z"/>
</g>
<g>
	<path d="M264.21,268.82c10.82,0.88,21.44,3.56,31.28,7.87c0.2,0.09,0.29,0.32,0.2,0.52c-0.08,0.19-0.3,0.28-0.49,0.21
		c-10.02-3.62-20.59-5.54-31.13-5.69c-0.8-0.01-1.45-0.67-1.43-1.48c0.01-0.8,0.67-1.45,1.48-1.43
		C264.15,268.81,264.18,268.81,264.21,268.82z"/>
</g>
<path class="st14" d="M88.58,79.44l0.81,6c0.06,0.44-0.2,0.86-0.62,1l-14.84,4.99c-0.38,0.13-0.63,0.48-0.63,0.88v38.24
	c0,9.43-4.26,10.98-21.56,10.77c-0.42-0.01-0.8-0.29-0.9-0.71c-0.42-1.76-1.27-4.21-2.16-6.22c-0.27-0.62,0.2-1.3,0.87-1.29
	c5.78,0.1,10.86,0.1,12.46,0.1c1.73-0.13,2.52-0.66,2.52-2.66V95.86c0-0.63-0.63-1.08-1.23-0.88c-5.49,1.85-10.44,3.39-14.54,4.71
	c-0.32,0.1-0.54,0.37-0.61,0.69c-0.06,0.28-0.17,0.53-0.32,0.74c-0.42,0.61-1.37,0.45-1.62-0.24l-2.98-8.29
	c-0.18-0.51,0.1-1.07,0.63-1.21c5.64-1.52,12.48-3.47,20-5.65c0.4-0.12,0.67-0.48,0.67-0.89V54.06c0-0.51-0.42-0.93-0.93-0.93h-18.2
	c-0.51,0-0.93-0.42-0.93-0.93v-6.51c0-0.51,0.42-0.93,0.93-0.93h18.2c0.51,0,0.93-0.42,0.93-0.93V19.06c0-0.53,0.45-0.96,0.98-0.93
	l8.42,0.49c1.05,0.06,1.21,1.57,0.2,1.82c-0.03,0.01-0.06,0.02-0.09,0.02c-0.43,0.1-0.74,0.47-0.74,0.91v22.47
	c0,0.51,0.42,0.93,0.93,0.93H87.9c0.51,0,0.93,0.42,0.93,0.93v6.51c0,0.51-0.42,0.93-0.93,0.93H74.22c-0.51,0-0.93,0.42-0.93,0.93
	v27.57c0,0.62,0.6,1.07,1.19,0.89l12.91-3.85C87.94,78.51,88.5,78.87,88.58,79.44z M157.7,24.06l4.11,0.54
	c0.48,0.06,0.84,0.49,0.81,0.98c-0.05,0.62-0.14,1.32-0.22,2.02c0,0.02,0,0.04-0.01,0.06c-1.73,30.78-3.45,42.06-6.9,46.05
	c-2.92,3.32-6.37,3.72-12.48,3.72c-2.71,0-6-0.11-9.43-0.24c-0.45-0.02-0.82-0.35-0.89-0.79c-0.26-1.92-0.8-4.27-1.66-6.17
	c-0.29-0.64,0.22-1.35,0.92-1.29c5.27,0.39,9.8,0.39,11.72,0.39c2.12,0,3.32-0.13,4.25-1.46c2.23-2.36,3.94-11.3,5.26-34.47
	c0.03-0.53-0.39-0.99-0.93-0.99h-25.07c-0.45,0-0.83,0.31-0.91,0.75c-3.2,16.85-9.58,35.2-30.43,45.49
	c-0.42,0.21-0.93,0.07-1.19-0.33c-1.05-1.65-2.7-3.59-4.17-5.03c-0.46-0.45-0.31-1.22,0.27-1.5c17.33-8.3,23.61-23.1,26.43-38.29
	c0.11-0.57-0.34-1.1-0.92-1.1H93.34c-0.51,0-0.93-0.42-0.93-0.93v-6.38c0-0.51,0.42-0.93,0.93-0.93h62.25c0.02,0,0.04,0,0.06,0
	l1.87-0.12C157.58,24.05,157.64,24.06,157.7,24.06z M96.93,140.38V87.79c0-0.51,0.42-0.93,0.93-0.93h60.29
	c0.51,0,0.93,0.42,0.93,0.93v52.06c0,0.51-0.42,0.93-0.93,0.93h-7.04c-0.51,0-0.93-0.42-0.93-0.93v-3.72c0-0.51-0.42-0.93-0.93-0.93
	h-42.76c-0.51,0-0.93,0.42-0.93,0.93v4.25c0,0.51-0.42,0.93-0.93,0.93h-6.78C97.35,141.3,96.93,140.89,96.93,140.38z M149.25,95.09
	h-42.76c-0.51,0-0.93,0.42-0.93,0.93v30.01c0,0.51,0.42,0.93,0.93,0.93h42.76c0.51,0,0.93-0.42,0.93-0.93V96.02
	C150.18,95.51,149.76,95.09,149.25,95.09z"/>
<path class="st14" d="M286.71,66.01c-11.1,3.68-24.23,6.04-36.83,7.59c-1,0.12-1.54,1.23-1,2.08c4.11,6.54,11.05,14.61,19.28,18.37
	c0.78,0.36,1.05,1.33,0.55,2.04l-3.66,5.21c-0.39,0.55-1.12,0.74-1.73,0.45c-1.89-0.92-4.55-2.2-6.53-3.39
	c-0.08-0.05-0.16-0.09-0.25-0.12c-2.98-1.04-9.39-1.95-15.54-1.95c-1.46,0-2.91,0.08-4.3,0.18c-0.66,0.05-1.26-0.39-1.42-1.03
	l-1.16-4.54c-0.22-0.85,0.41-1.69,1.28-1.72c3.06-0.09,6.67,0.02,9.73,0.25c1.21,0.09,1.93-1.32,1.15-2.26
	c-2.79-3.36-5.69-7.5-7.78-11.55c-0.26-0.51-0.79-0.8-1.36-0.75c-8.66,0.86-18.38,1.23-34.65,1.23c-6.03,0-12.75,0-18.46-0.11
	c-0.74-0.01-1.33-0.61-1.35-1.35l-0.09-5.61c-0.01-0.78,0.62-1.41,1.4-1.4c5.74,0.12,12.77,0.23,18.89,0.23
	c10.29,0,20.47,0,30.63-0.79c0.89-0.07,1.48-0.95,1.2-1.8c-1.31-3.99-2.97-9.86-4.32-14.89c-0.17-0.65-0.78-1.07-1.45-1.01
	c-5.01,0.46-10.53,0.69-15.58,0.69c-6.68,0-15.08,0-21.25-0.21c-0.74-0.03-1.33-0.63-1.33-1.38v-5.47c0-0.78,0.65-1.41,1.44-1.37
	c7.57,0.33,15.64,0.33,21.01,0.33c4.3,0,9.13-0.21,13.73-0.55c0.82-0.06,1.4-0.83,1.25-1.63c-1.03-5.33-2.13-11.46-3.06-17.74
	c-0.12-0.84,0.53-1.58,1.38-1.58l9.23,0.09c1.56,0.02,1.91,2.23,0.42,2.68c-0.02,0.01-0.04,0.01-0.06,0.02
	c-0.64,0.19-1.03,0.84-0.93,1.5c0.69,4.89,1.48,10.01,2.37,14.52c0.14,0.7,0.78,1.17,1.49,1.1c11.52-1.19,23.7-3.6,32.93-7.03
	c0.76-0.28,1.6,0.14,1.82,0.92l1.52,5.54c0.19,0.69-0.18,1.42-0.86,1.66c-9.17,3.22-21.16,5.54-33.37,6.96
	c-0.82,0.1-1.38,0.89-1.18,1.7c1.46,5.86,2.92,11.08,4.29,14.85c0.22,0.6,0.81,0.98,1.44,0.91c13.22-1.44,27.39-4.27,38.92-8.15
	c0.78-0.26,1.6,0.2,1.78,1l1.26,5.65C287.76,65.09,287.38,65.79,286.71,66.01z M264.55,134.61c-0.02,0.71-0.58,1.28-1.29,1.33
	c-7.06,0.47-15.56,0.71-27.96,0.71c-21.51-0.13-38.24-7.04-37.98-22.04c0.13-7.55,6.55-15.6,14.74-20.45
	c0.54-0.32,1.23-0.22,1.67,0.23l3.98,4.07c0.62,0.64,0.48,1.69-0.28,2.14c-6.77,4.01-10.68,9.18-10.68,13.88
	c0,9.43,11.69,13.54,28.55,13.68c9.41,0,19.29-0.47,27.97-1.09c0.81-0.06,1.49,0.6,1.47,1.41L264.55,134.61z"/>
<path class="st14" d="M309.71,19.79c5.46,4.83,9.85,9.76,13.44,14.81c0.36,0.5,1.1,0.53,1.48,0.05c4.1-5.14,7.66-10.35,10.48-15.27
	c0.25-0.43,0.78-0.59,1.22-0.36l7.05,3.58c0.86,0.43,0.57,1.75-0.39,1.76c-0.02,0-0.04,0-0.06,0c-0.32,0-0.6,0.17-0.76,0.45
	c-3.47,5.82-8.12,11.99-13.39,18.05c-0.24,0.28-0.29,0.68-0.13,1.01c7.33,14.84,8.62,30.59,8.62,46.86
	c0,19.88-1.32,38.18-6.74,45.64c-0.02,0.03-0.04,0.06-0.06,0.08c-3.58,4.35-8.36,5.01-18.03,5.01c-1.46,0-2.91,0-4.37-0.08
	c-0.47-0.03-0.83-0.4-0.87-0.86c-0.2-2.16-0.81-4.47-1.78-6.48c-0.31-0.65,0.17-1.39,0.89-1.34c2.53,0.18,4.86,0.27,6.92,0.27
	c6.64,0,8.63,0,10.76-2.66c3.45-4.65,4.78-21.64,4.78-39.7c0-1.71,0-3.43-0.04-5.14c-0.02-0.9-1.17-1.25-1.69-0.52
	c-6.02,8.55-13.35,16.69-20.22,22.3c-0.41,0.34-1.02,0.25-1.33-0.18c-1.25-1.73-2.98-3.86-4.61-5.33c-0.45-0.41-0.41-1.11,0.09-1.46
	c9.63-6.64,20.27-18.92,26.33-30.51c0.09-0.18,0.13-0.38,0.1-0.57c-0.87-6.1-2.31-12.19-4.73-17.97c-0.25-0.6-1.04-0.75-1.51-0.29
	c-4.4,4.34-9.01,8.46-13.73,12.16c-0.39,0.31-0.94,0.25-1.27-0.12c-1.22-1.37-3.09-3.03-4.62-4.29c-0.47-0.38-0.45-1.09,0.03-1.45
	c5.59-4.23,11.06-9.22,16.09-14.57c0.29-0.31,0.34-0.78,0.12-1.13c-3.51-5.64-8.06-11.17-14.07-16.58
	c-0.43-0.39-0.41-1.06,0.04-1.42l4.76-3.75C308.87,19.47,309.38,19.49,309.71,19.79z M405.66,35.6h18.19c0.51,0,0.93,0.42,0.93,0.93
	v6.51c0,0.51-0.42,0.93-0.93,0.93h-18.19c-0.51,0-0.93,0.42-0.93,0.93v16.33c0,0.51-0.42,0.93-0.93,0.93h-6.91
	c-0.51,0-0.93-0.42-0.93-0.93V44.9c0-0.51-0.42-0.93-0.93-0.93h-23.9c-0.51,0-0.93,0.42-0.93,0.93v16.33c0,0.51-0.42,0.93-0.93,0.93
	h-6.77c-0.51,0-0.93-0.42-0.93-0.93V44.9c0-0.51-0.42-0.93-0.93-0.93h-18.06c-0.51,0-0.93-0.42-0.93-0.93v-6.51
	c0-0.51,0.42-0.93,0.93-0.93h18.06c0.51,0,0.93-0.42,0.93-0.93V18.93c0-0.53,0.45-0.96,0.98-0.93l8.21,0.48
	c1.05,0.06,1.21,1.55,0.19,1.83c-0.02,0-0.03,0.01-0.05,0.01c-0.41,0.11-0.7,0.47-0.7,0.9v13.46c0,0.51,0.42,0.93,0.93,0.93h23.9
	c0.51,0,0.93-0.42,0.93-0.93V18.93c0-0.53,0.45-0.96,0.98-0.93l8.32,0.49c1.02,0.06,1.22,1.53,0.23,1.81
	c-0.02,0.01-0.05,0.01-0.07,0.02c-0.41,0.11-0.71,0.47-0.71,0.9v13.46C404.73,35.19,405.15,35.6,405.66,35.6z M348.83,140.38V70.66
	c0-0.51,0.42-0.93,0.93-0.93h67.19c0.51,0,0.93,0.42,0.93,0.93v69.05c0,0.51-0.42,0.93-0.93,0.93h-6.77c-0.51,0-0.93-0.42-0.93-0.93
	v-2.66c0-0.51-0.42-0.93-0.93-0.93h-50.2c-0.51,0-0.93,0.42-0.93,0.93v3.32c0,0.51-0.42,0.93-0.93,0.93h-6.51
	C349.25,141.3,348.83,140.89,348.83,140.38z M377.65,77.96h-19.52c-0.51,0-0.93,0.42-0.93,0.93v18.59c0,0.51,0.42,0.93,0.93,0.93
	h19.52c0.51,0,0.93-0.42,0.93-0.93V78.89C378.57,78.38,378.16,77.96,377.65,77.96z M358.12,127.89h19.52c0.51,0,0.93-0.42,0.93-0.93
	v-19.65c0-0.51-0.42-0.93-0.93-0.93h-19.52c-0.51,0-0.93,0.42-0.93,0.93v19.65C357.2,127.48,357.61,127.89,358.12,127.89z
	 M409.25,97.48V78.89c0-0.51-0.42-0.93-0.93-0.93h-20.45c-0.51,0-0.93,0.42-0.93,0.93v18.59c0,0.51,0.42,0.93,0.93,0.93h20.45
	C408.83,98.41,409.25,98,409.25,97.48z M387.87,127.89h20.45c0.51,0,0.93-0.42,0.93-0.93v-19.65c0-0.51-0.42-0.93-0.93-0.93h-20.45
	c-0.51,0-0.93,0.42-0.93,0.93v19.65C386.94,127.48,387.36,127.89,387.87,127.89z"/>
</svg>
