<?xml version="1.0" encoding="utf-8"?>
<!-- Generator: Adobe Illustrator 23.0.6, SVG Export Plug-In . SVG Version: 6.00 Build 0)  -->
<svg version="1.1" id="Layer_1" xmlns="http://www.w3.org/2000/svg" xmlns:xlink="http://www.w3.org/1999/xlink" x="0px" y="0px"
	 viewBox="0 0 320 74" style="enable-background:new 0 0 320 74;" xml:space="preserve">
<style type="text/css">
	.st0{fill:#3F784C;}
	.st1{fill:#A22522;}
	.st2{fill:none;stroke:#FFFFFF;stroke-width:3;stroke-miterlimit:10;}
	.st3{fill:none;stroke:#FFFFFF;stroke-miterlimit:10;}
	.st4{fill:none;stroke:#FFFFFF;stroke-width:2;stroke-miterlimit:10;}
	.st5{fill:none;stroke:#FFFFFF;stroke-width:1.5456;stroke-miterlimit:10;}
	.st6{fill:none;stroke:#FFFFFF;stroke-width:3;stroke-linecap:round;stroke-linejoin:round;stroke-miterlimit:10;}
	.st7{fill:none;stroke:#FFFFFF;stroke-linecap:round;stroke-linejoin:round;stroke-miterlimit:10;}
	.st8{fill:none;stroke:#000000;stroke-width:3;stroke-miterlimit:10;}
	.st9{fill:none;stroke:#000000;stroke-width:4;stroke-linecap:round;stroke-linejoin:round;stroke-miterlimit:10;}
	.st10{fill:none;stroke:#000000;stroke-width:4;stroke-miterlimit:10;}
	.st11{fill:#F9F9F9;stroke:#000000;stroke-width:4;stroke-miterlimit:10;}
	.st12{fill:#FFFFFF;stroke:#000000;stroke-width:3;stroke-miterlimit:10;}
	.st13{fill:none;stroke:#000000;stroke-width:2;stroke-miterlimit:10;}
	.st14{fill:#FFFFFF;stroke:#000000;stroke-width:2;stroke-miterlimit:10;}
	.st15{fill:none;stroke:#000000;stroke-width:1.5456;stroke-miterlimit:10;}
	.st16{fill:#FCFCFC;stroke:#000000;stroke-width:4.0858;stroke-linecap:round;stroke-linejoin:round;stroke-miterlimit:10;}
	.st17{fill:#FFFFFF;stroke:#000000;stroke-width:3.0643;stroke-miterlimit:10;}
	.st18{fill:#FCFCFC;stroke:#000000;stroke-width:4;stroke-miterlimit:10;}
	.st19{fill:#FCFCFC;stroke:#000000;stroke-width:3.0643;stroke-miterlimit:10;}
	.st20{fill:#F9F9F9;}
	.st21{fill:#FFFFFF;stroke:#000000;stroke-width:4;stroke-miterlimit:10;}
	.st22{fill:none;stroke:#000000;stroke-linecap:round;stroke-linejoin:round;stroke-miterlimit:10;}
	.st23{fill:none;stroke:#000000;stroke-width:2.0349;stroke-miterlimit:10;}
	.st24{fill:#F08CAE;stroke:#000000;stroke-width:2.7131;stroke-linecap:round;stroke-linejoin:round;stroke-miterlimit:10;}
	.st25{fill:#3F784C;stroke:#000000;stroke-width:2.7131;stroke-miterlimit:10;}
	.st26{opacity:0.5;clip-path:url(#XMLID_7_);}
	.st27{fill:#FFE48C;}
	.st28{opacity:0.75;clip-path:url(#XMLID_7_);fill:#CC4B00;}
	.st29{clip-path:url(#XMLID_7_);fill:#CC4B00;}
	.st30{fill:#FF9840;stroke:#000000;stroke-width:2.0349;stroke-miterlimit:10;}
	.st31{fill:#FF9840;stroke:#000000;stroke-width:2.7131;stroke-miterlimit:10;}
	.st32{fill:#CCBD49;stroke:#000000;stroke-width:2.0349;stroke-miterlimit:10;}
	.st33{stroke:#000000;stroke-width:2.0349;stroke-miterlimit:10;}
	.st34{fill:#FFF07C;stroke:#000000;stroke-width:1.3566;stroke-miterlimit:10;}
	.st35{fill:none;stroke:#000000;stroke-width:1.0484;stroke-miterlimit:10;}
	.st36{fill:none;stroke:#000000;stroke-width:1.3566;stroke-miterlimit:10;}
	.st37{fill:#E6D763;stroke:#000000;stroke-width:2.7713;stroke-linecap:round;stroke-linejoin:round;stroke-miterlimit:10;}
	.st38{fill:none;stroke:#000000;stroke-width:2.7131;stroke-miterlimit:10;}
	.st39{fill:none;stroke:#000000;stroke-width:2.7131;stroke-linecap:round;stroke-linejoin:round;stroke-miterlimit:10;}
	.st40{fill:none;stroke:#000000;stroke-width:2.6736;stroke-miterlimit:10;}
	.st41{fill:#F08CAE;stroke:#000000;stroke-width:3.5648;stroke-linecap:round;stroke-linejoin:round;stroke-miterlimit:10;}
	.st42{fill:#3F784C;stroke:#000000;stroke-width:3.5648;stroke-miterlimit:10;}
	.st43{opacity:0.5;clip-path:url(#XMLID_9_);}
	.st44{opacity:0.75;clip-path:url(#XMLID_9_);fill:#CC4B00;}
	.st45{clip-path:url(#XMLID_9_);fill:#CC4B00;}
	.st46{fill:#FF9840;stroke:#000000;stroke-width:2.6736;stroke-miterlimit:10;}
	.st47{fill:#FF9840;stroke:#000000;stroke-width:3.5648;stroke-miterlimit:10;}
	.st48{fill:#CCBD49;stroke:#000000;stroke-width:2.6736;stroke-miterlimit:10;}
	.st49{stroke:#000000;stroke-width:2.6736;stroke-miterlimit:10;}
	.st50{fill:#FFF07C;stroke:#000000;stroke-width:1.7824;stroke-miterlimit:10;}
	.st51{fill:none;stroke:#000000;stroke-width:1.3774;stroke-miterlimit:10;}
	.st52{fill:none;stroke:#000000;stroke-width:1.7824;stroke-miterlimit:10;}
	.st53{fill:#E6D763;stroke:#000000;stroke-width:3.6412;stroke-linecap:round;stroke-linejoin:round;stroke-miterlimit:10;}
	.st54{fill:none;stroke:#000000;stroke-width:3.5648;stroke-miterlimit:10;}
	.st55{fill:none;stroke:#000000;stroke-width:3.5648;stroke-linecap:round;stroke-linejoin:round;stroke-miterlimit:10;}
	.st56{fill:#FFFFFF;stroke:#000000;stroke-width:2.6278;stroke-miterlimit:10;}
</style>
<g>
	<path d="M53.68,44.23c-0.08,4.37-0.02,8.76-0.02,13.13c0,0.68,0.04,1.37,0.02,2.05c-0.05,1.61-0.56,2.61-1.51,2.62
		c-3.65,0.03-7.28,0.09-10.93,0c-1.3-0.03-1.99,0.21-2.27-2.01c-0.17-1.32-0.08-3.91-0.09-5.26c-0.01-1.97,0.02-5.36,0.03-7.67
		c0-1.03-0.75-1.48-1.11-0.67c-1.44,3.22-4.24,10.1-5.16,10.25c-0.49,0.08-3.47-7.33-4.85-10.64c-0.38-0.92-1.19-0.47-1.24,0.65
		c0.02,5.05,0.05,7.29,0.08,12.42c0.01,1.95-0.4,2.74-1.53,2.86c-0.63,0.06-1.37,0.08-2,0.07c-2.69-0.04-5.34,0.05-8.03,0
		c-0.32-0.01-0.77-0.03-1.47-0.03c-1.79,0-1.74-2.53-1.75-4.42c-0.01-1.5-0.04-8.47-0.04-9.97c0-7.66,0-15.33,0-22.99
		c0-1.09,0-2.19,0.1-3.26c0.12-1.23,0.53-2.55,1.26-2.28c0.49,0.18,1.31,0.04,1.78,0c1.5-0.13,3.34,0,5.14,0
		c2.01,0.18,4.85,0.06,7.1,0.01c0.68-0.01,1.31,0.67,1.6,1.74c0.63,2.33,2.45,6.5,3.27,9.34c0.36,1.26,1.41,1.26,1.76-0.01l3.2-8.96
		c0.36-1.28,1.11-2.08,1.93-2.08c3.71,0.04,9.93,0.02,12.86,0.03c0.24,0,0.48,0,0.71,0.05c0.69,0.12,1.2,0.97,1.25,2.1
		c0.02,0.54-0.01,1.09-0.01,1.64c-0.02,2.05-0.07,4.11-0.04,6.16C53.82,34.15,53.77,39.18,53.68,44.23z"/>
	<path d="M95.59,62.04c-0.48,0-1.2-0.02-1.68,0c-1.01,0-8.71,0.02-9.5,0c-1.5-0.03-2.51,0.05-3.01-2.54
		c-0.28-1.41-0.28-7.37-1.15-7.38c-1.98-0.02-4.86,0.05-6.84,0.02c-0.63-0.01-1.04,0.57-1.33,1.46c-0.55,1.66-0.89,5.49-1.45,7.14
		c-0.48,1.41-0.9,1.38-1.87,1.31c-0.95-0.07-2.25-0.05-3.2-0.03c-1.11,0.03-3.29,0.03-4.46,0.03c-1.59,0-2.41,0-4.11,0
		c-1.34-0.11-1.37-1.19-1.13-2.66c0.09-0.52,0.23-1.02,0.35-1.52c2.19-8.93,4.38-17.86,6.57-26.79c0.68-2.77,1.34-5.55,2.05-8.29
		c0.22-0.86,0.54-1.66,0.85-2.43c0.39-0.95,0.93-1.32,1.62-1.27c0.4,0.03,0.79-0.01,1.19,0c5.39,0.02,11.13-0.03,16.52,0
		c0.32,0,0.64,0.03,0.95,0.01c0.89-0.05,1.53,0.57,1.94,1.89c0.41,1.33,0.8,2.68,1.14,4.06c1.12,4.52,2.26,9.03,3.31,13.6
		c1.02,4.44,1.92,8.96,2.89,13.44c0.52,2.43,1.1,4.83,1.59,7.28C97.25,61.44,96.87,61.8,95.59,62.04z M79.57,41.43
		c-0.2-3.83-2.03-12.19-2.82-11.14c-1.13,1.49-1.68,5.22-2.12,7.43c-0.19,0.97-1.1,4.76-0.5,5.58c0.22,0.3,2.64,0.2,4.42,0.13
		C79.15,43.41,79.63,42.48,79.57,41.43z"/>
	<path d="M130.48,62.03c-0.13,0,0.09,0.02-0.03,0.02c-1.56-0.07-4.36,0-6.16,0c-1.17,0-2.52,0.05-3.71,0c-0.5-0.02-1.95,0-2.53,0
		c-1.26,0-1.44-1.29-1.63-3.37c-0.17-1.8-1.48-9.09-2-10.66c-0.38-1.13-1.31-1.95-1.84-0.77c-0.5,1.1-0.48,2.99-0.52,4.31
		c-0.09,2.68,0.06,5.33,0.06,8.01c0,1.12-0.38,2.3-1.02,2.44c-0.31,0.07-0.62,0.03-0.94,0.04c-2.44,0.04-6.27-0.11-8.71,0
		c-1.26,0.06-2.09-0.47-2.13-3.38c-0.14-11.78-0.79-24.56-0.12-36.28c0.11-1.87,1.02-3.3,2.11-3.3h1.57c1.12,0,4.68,0.08,5.61,0
		c1.55-0.13,5.39,0,6.63,0c0.98,0,1.82-0.03,2.55,0.04c1.2,0.12,3.16,0.32,4.36,0.27c4.12-0.15,8.19,6.46,7.79,13.83
		c-0.4,7.41-4.11,10.73-4.11,10.73C126.79,48.56,133.17,62.01,130.48,62.03z M115.83,34.55c-0.01-1.63-0.16-3.21-0.28-4.82
		c-0.12-1.67-1.03-4.16-2.13-4.16c-1.68-0.01-2.01,3.33-1.98,4.81c0.03,1.3,0.07,2.6,0.11,3.9c0.05,1.38,0.25,3.2,0.85,4.19
		c0.65,1.07,2.33,0.51,2.82-0.69C115.59,36.88,115.83,35.67,115.83,34.55z"/>
	<path d="M150.33,30.37c-0.24,2.19-0.26,4.45-0.11,6.66c0.54,8.39,3.71,16.26,9.28,14.15c1.55-0.59,3.26-0.26,3.64,2.97
		c0.65,5.6-2.29,6.26-4.72,7.22c-6.7,2.61-15.88,3.18-21.67-4.3c-4.4-5.68-5.09-17.94-2.73-26.1c2.41-8.34,7.8-12.17,13.54-12.86
		c0.38-0.05,0.75-0.08,1.13-0.1c0.45-0.01,0.91-0.01,1.37-0.01h0.68c4.12,0,9.09,0,12.2,3.89c0.61,0.77,1,1.68,0.97,3.06
		c-0.03,1.53-0.38,4.91-0.66,6.34c-0.39,1.97-1.36,5.22-2.9,4.02c-1.05-0.81-1.76-2.42-2.64-3.69c-2.03-2.95-4.61-7.86-6.2-5.71
		C150.99,26.59,150.59,27.98,150.33,30.37z"/>
	<path d="M202.98,54.91c0.01,0.96,0.02,1.92-0.01,2.87c-0.08,2.11-0.31,3.61-1.59,4.16c-0.94,0.09-1.97,0.09-2.93,0.06
		c-1.59-0.04-3.52-0.07-5.1,0.02c-0.98,0.06-2.31-0.05-3.21-0.53c-1.08-0.42-1.35-1.28-1.48-3.27c-0.15-2.3,0.04-4.02-0.05-6.33
		c-0.09-2.31,0.26-5.83-0.25-7.95c-0.57-0.98-1.59-0.72-2.32-0.75c-0.95-0.03-2.98-0.09-3.92-0.02c-1.49,0.11-1.63,2.13-1.7,4.69
		c-0.05,1.64,0.02,2.09,0.04,3.73c0.02,2.19,0.06,5.45,0.05,7.64c0,1.36-0.48,2.37-1.22,2.64c-0.38,0.14-0.78,0.16-1.18,0.15
		c-2.69-0.03-5.54,0.1-8.23,0c-0.62-0.02-1.16,0-1.85,0c-1.23,0-1.1-2.3-1.22-3.75c-0.04-0.54-0.02-1.09-0.02-1.64
		c-0.03-11.08-0.07-22.37-0.1-33.45c0-0.55-0.01-1.1,0.01-1.64c0.06-1.66,0.49-2.45,1.52-2.47c2.06-0.04,4.12,0.03,6.18,0.06
		c1.66,0.02,2.92-0.07,4.68-0.07c0.67,0.33,1.4,1.84,1.4,3.06c0,1.63-0.08,2.4-0.15,4.03c-0.03,0.81-0.15,1.02-0.17,1.84
		c0.01,7.45,0.8,7.38,2.86,7.21c2.05-0.22,2.74,0.21,4.21-0.01c0.57-0.27,1-0.97,1.13-1.93c0.29-2.1,0.46-2.92,0.42-5.82
		c-0.04-1.91,0.19-3.54,0.24-5.31c0.06-2.03,0.79-3.07,2.01-3.06c3.49,0,6.28-0.06,9.76,0.01c0.81,0.02,1.57,0.31,2.19,1.57
		c0.17,2.2,0.17,4.56-0.06,6.81c-0.41,3.94-0.02,7.9-0.03,11.85C202.88,44.52,202.95,49.72,202.98,54.91z"/>
	<path d="M244.82,62.04c-0.48,0-1.2-0.02-1.68,0c-1.01,0-8.71,0.02-9.5,0c-1.5-0.03-2.51,0.05-3.01-2.54
		c-0.28-1.41-0.28-7.37-1.15-7.38c-1.98-0.02-4.86,0.05-6.84,0.02c-0.63-0.01-1.04,0.57-1.33,1.46c-0.55,1.66-0.89,5.49-1.45,7.14
		c-0.48,1.41-0.9,1.38-1.87,1.31c-0.95-0.07-2.25-0.05-3.2-0.03c-1.11,0.03-3.29,0.03-4.46,0.03c-1.59,0-2.41,0-4.11,0
		c-1.34-0.11-1.37-1.19-1.13-2.66c0.09-0.52,0.23-1.02,0.35-1.52c2.19-8.93,4.38-17.86,6.57-26.79c0.68-2.77,1.34-5.55,2.05-8.29
		c0.22-0.86,0.54-1.66,0.85-2.43c0.39-0.95,0.93-1.32,1.62-1.27c0.4,0.03,0.79-0.01,1.19,0c5.39,0.02,11.13-0.03,16.52,0
		c0.32,0,0.64,0.03,0.95,0.01c0.89-0.05,1.53,0.57,1.94,1.89c0.41,1.33,0.8,2.68,1.14,4.06c1.12,4.52,2.26,9.03,3.31,13.6
		c1.02,4.44,1.92,8.96,2.89,13.44c0.52,2.43,1.1,4.83,1.59,7.28C246.47,61.44,246.09,61.8,244.82,62.04z M228.8,41.43
		c-0.2-3.83-2.03-12.19-2.82-11.14c-1.13,1.49-1.68,5.22-2.12,7.43c-0.19,0.97-1.1,4.76-0.5,5.58c0.22,0.3,2.64,0.2,4.42,0.13
		C228.38,43.41,228.85,42.48,228.8,41.43z"/>
	<path d="M277.7,60.25c0.01,1.43-0.52,1.78-1.4,1.78c-1.5,0-5.15,0-6.76,0.01c-0.75,0-1.51-0.21-2.24-0.01
		c-1.01,0.27-1.67,0.02-2.23-1.3c-0.96-2.25-4.66-10.86-5.32-11.49c-0.05,0.46-0.12,0.84-0.12,1.22c-0.01,2.16-0.01,6.69-0.02,8.85
		c0,0.64-0.02,1.29-0.08,1.93c-0.05,0.59-0.44,0.74-0.8,0.8c-0.19,0.03-0.46,0-0.65,0c-2.44-0.05-4.78,0-7.22,0
		c-1.95,0-2.48-0.55-2.48-4.16c0-11.97-0.05-23.94-0.08-35.91c0-0.75-0.1-0.91-0.03-1.65c0.08-0.83,0.56-1.24,1.13-1.24
		c0.98,0,4.34,0.01,5.27,0c0.94-0.01,1.91,0.11,2.84,0c1.11-0.13,1.85,0.26,2.4,2.09c1.4,3.21,4.96,12.95,5.99,14.51
		c0.3-1.66,0.23-2.95,0.21-4.23c-0.04-2.48-0.1-7.33-0.14-9.81c-0.01-0.43-0.01-0.86,0.01-1.29c0.04-1.08,0.44-1.28,1.05-1.27
		c2.32,0.07,4.54-0.07,6.79,0.02c0.87,0.04,1.73,0.07,2.6,0.17c0.54,0.06,0.93,0.77,0.96,1.69c0.03,0.75,0.01,1.51,0.01,2.26
		c0,10.35-0.01,20.7,0,31.05c0,1.17,0.13,2.35,0.19,3.52C277.64,58.76,277.69,59.28,277.7,60.25z"/>
	<path d="M308.69,24.82c-0.02,1.64-0.51,2.46-1.46,2.65c-1.33,0.27-1.82-0.01-3.16,0.17c-0.93,0.13-1.59-0.3-2.35,1.11
		c-0.43,0.8-0.21,1.43-0.19,2.46c0.04,1.96,0.08,5.12,0.08,7.08c0,5.88-0.05,13.24-0.08,19.12c-0.01,0.81,0,1.65-0.09,2.44
		c-0.15,1.28-0.76,2.2-1.51,2.2c-3.09-0.01-6.92,0.11-10.01,0c-0.54-0.02-1.22,0-1.88,0c-1.19,0-1.08-2.49-1.22-4.5
		c-0.16-2.3-0.01-3.69,0.01-6.03c0.03-3.42,0.31-9.21,0.26-12.63c-0.02-1.46,0.12-6.98-0.02-8.28c-0.23-2.1-0.52-2.88-1.7-2.88
		c-0.63,0-3.16-0.04-3.8-0.07c-0.4-0.02-0.11,0-0.5-0.11c-1-0.29-1.54-0.71-1.55-2.47c-0.01-3.01,0.04-0.08,0.06-3.09
		c0.01-1.77,0.3-2.9,1.38-2.9c2.69,0,4.63,0.14,7.32,0.1c0.79-0.01,8.51,0.09,10.88,0.06c1.58-0.02,3.13-0.17,4.72-0.17
		c1.57,0,1.52-0.02,2.63,0c0.75,0.01,1.43,0.22,1.89,1.26C308.96,21.65,308.71,23.3,308.69,24.82z"/>
</g>
</svg>
